<svg width="51" height="51" viewBox="0 0 51 51" fill="none" xmlns="http://www.w3.org/2000/svg">
<rect width="50.5203" height="50.5203" rx="5.74094" fill="white"/>
<rect x="0.459276" y="0.459276" width="49.6018" height="49.6018" rx="5.28167" stroke="#333333" stroke-opacity="0.15" stroke-width="0.918551"/>
<path d="M28.2365 36.646C27.9935 36.6469 27.7534 36.5932 27.5338 36.4891C27.3142 36.3849 27.1208 36.2329 26.9677 36.0442L19.1112 26.2846C18.872 25.9935 18.7412 25.6285 18.7412 25.2517C18.7412 24.8749 18.872 24.5099 19.1112 24.2188L27.2442 14.4592C27.5203 14.127 27.9171 13.9181 28.3472 13.8785C28.7773 13.8388 29.2056 13.9716 29.5378 14.2477C29.8699 14.5238 30.0788 14.9206 30.1185 15.3507C30.1581 15.7808 30.0253 16.2091 29.7492 16.5412L22.4783 25.2598L29.5052 33.9784C29.7041 34.2172 29.8305 34.5079 29.8693 34.8162C29.9082 35.1245 29.8579 35.4375 29.7244 35.7182C29.5909 35.9988 29.3799 36.2353 29.1162 36.3998C28.8525 36.5642 28.5472 36.6497 28.2365 36.646Z" fill="#232738"/>
</svg>
