<svg width="24" height="24" viewBox="0 0 24 24" fill="none" xmlns="http://www.w3.org/2000/svg">
<g clip-path="url(#clip0_37_1544)">
<path d="M11.9348 5.91211C12.1294 5.91211 12.316 5.98939 12.4535 6.12696C12.5911 6.26452 12.6684 6.4511 12.6684 6.64564V8.84624C12.6684 9.04078 12.5911 9.22736 12.4535 9.36492C12.316 9.50249 12.1294 9.57977 11.9348 9.57977C11.7403 9.57977 11.5537 9.50249 11.4161 9.36492C11.2786 9.22736 11.2013 9.04078 11.2013 8.84624V6.64564C11.2013 6.4511 11.2786 6.26452 11.4161 6.12696C11.5537 5.98939 11.7403 5.91211 11.9348 5.91211ZM5.6734 8.45306C5.81096 8.31555 5.9975 8.2383 6.19201 8.2383C6.38651 8.2383 6.57306 8.31555 6.71062 8.45306L8.05298 9.79396C8.12118 9.86216 8.17528 9.94313 8.21219 10.0322C8.2491 10.1213 8.2681 10.2168 8.2681 10.3133C8.2681 10.4098 8.2491 10.5053 8.21219 10.5944C8.17528 10.6835 8.12118 10.7644 8.05298 10.8326C7.98478 10.9008 7.90381 10.9549 7.8147 10.9919C7.72559 11.0288 7.63009 11.0478 7.53364 11.0478C7.43719 11.0478 7.34168 11.0288 7.25257 10.9919C7.16346 10.9549 7.0825 10.9008 7.0143 10.8326L5.6734 9.49028C5.53588 9.35272 5.45863 9.16618 5.45863 8.97167C5.45863 8.77716 5.53588 8.59062 5.6734 8.45306ZM3.13245 14.7145C3.13245 14.5199 3.20973 14.3334 3.34729 14.1958C3.48486 14.0582 3.67143 13.981 3.86598 13.981H6.19274C6.38729 13.981 6.57386 14.0582 6.71143 14.1958C6.84899 14.3334 6.92627 14.5199 6.92627 14.7145C6.92627 14.909 6.84899 15.0956 6.71143 15.2332C6.57386 15.3707 6.38729 15.448 6.19274 15.448H3.86598C3.67143 15.448 3.48486 15.3707 3.34729 15.2332C3.20973 15.0956 3.13245 14.909 3.13245 14.7145ZM17.0696 14.7145C17.0696 14.5199 17.1468 14.3334 17.2844 14.1958C17.422 14.0582 17.6085 13.981 17.8031 13.981H20.0037C20.1982 13.981 20.3848 14.0582 20.5224 14.1958C20.6599 14.3334 20.7372 14.5199 20.7372 14.7145C20.7372 14.909 20.6599 15.0956 20.5224 15.2332C20.3848 15.3707 20.1982 15.448 20.0037 15.448H17.8031C17.6085 15.448 17.422 15.3707 17.2844 15.2332C17.1468 15.0956 17.0696 14.909 17.0696 14.7145ZM18.1757 8.48534C18.0739 8.38455 17.938 8.32561 17.7949 8.32018C17.6517 8.31474 17.5117 8.36321 17.4026 8.456L11.2702 13.7022C11.1274 13.8226 11.0114 13.9716 10.9297 14.1397C10.848 14.3077 10.8026 14.491 10.7962 14.6777C10.7898 14.8645 10.8227 15.0505 10.8928 15.2237C10.9628 15.3969 11.0684 15.5534 11.2028 15.6833C11.3372 15.8131 11.4973 15.9133 11.6728 15.9773C11.8483 16.0414 12.0353 16.0678 12.2217 16.0551C12.4081 16.0423 12.5897 15.9906 12.7549 15.9032C12.92 15.8158 13.065 15.6947 13.1804 15.5478L18.2183 9.24381C18.3056 9.13397 18.3495 8.99586 18.3417 8.85574C18.3338 8.71563 18.2748 8.58328 18.1757 8.48387V8.48534Z" fill="#063266"/>
<path fill-rule="evenodd" clip-rule="evenodd" d="M0.198247 14.7145C0.199781 13.0065 0.574069 11.3195 1.29498 9.77115C2.0159 8.2228 3.06606 6.85045 4.37217 5.7499C5.67827 4.64936 7.20884 3.84714 8.85703 3.39926C10.5052 2.95137 12.2313 2.86861 13.9148 3.15675C15.5982 3.44489 17.1985 4.09699 18.6039 5.06752C20.0094 6.03806 21.186 7.30364 22.0517 8.77591C22.9175 10.2482 23.4515 11.8917 23.6164 13.5917C23.7813 15.2916 23.5733 17.0071 23.0067 18.6184C22.3582 20.4566 20.3 20.9686 18.7053 20.4522C16.7893 19.8316 14.0987 19.1157 11.9348 19.1157C9.7723 19.1157 7.07878 19.8316 5.16426 20.4522C3.56956 20.9686 1.51127 20.4566 0.862827 18.6184C0.421781 17.3641 0.197056 16.044 0.198247 14.7145ZM11.9348 4.44505C10.2922 4.44463 8.67349 4.83822 7.2145 5.59278C5.75551 6.34735 4.4988 7.44088 3.54985 8.7816C2.6009 10.1223 1.9874 11.6711 1.76083 13.298C1.53426 14.9248 1.70123 16.5823 2.24774 18.1313C2.54555 18.9749 3.60183 19.4164 4.7124 19.0555C6.64893 18.4306 9.52584 17.6486 11.9348 17.6486C14.3437 17.6486 17.2221 18.4291 19.1571 19.057C20.2677 19.4164 21.324 18.9749 21.6218 18.1313C22.1683 16.5823 22.3353 14.9248 22.1087 13.298C21.8821 11.6711 21.2686 10.1223 20.3197 8.7816C19.3707 7.44088 18.114 6.34735 16.655 5.59278C15.196 4.83822 13.5773 4.44463 11.9348 4.44505Z" fill="#063266"/>
</g>
<defs>
<clipPath id="clip0_37_1544">
<rect width="23.473" height="23.473" fill="white" transform="translate(0.198364 0.0437012)"/>
</clipPath>
</defs>
</svg>
