<svg width="29" height="29" viewBox="0 0 29 29" fill="none" xmlns="http://www.w3.org/2000/svg">
<path d="M14.3839 16.5407C13.5134 16.5407 12.6625 16.2825 11.9387 15.7989C11.2149 15.3153 10.6508 14.628 10.3177 13.8237C9.98457 13.0195 9.89741 12.1346 10.0672 11.2808C10.2371 10.4271 10.6562 9.64288 11.2717 9.02736C11.8873 8.41185 12.6715 7.99267 13.5252 7.82285C14.379 7.65303 15.2639 7.74019 16.0681 8.0733C16.8723 8.40642 17.5597 8.97053 18.0433 9.6943C18.5269 10.4181 18.7851 11.269 18.7851 12.1395C18.7837 13.3063 18.3195 14.425 17.4944 15.25C16.6693 16.0751 15.5507 16.5393 14.3839 16.5407ZM14.3839 9.49876C13.8616 9.49876 13.351 9.65364 12.9168 9.9438C12.4825 10.234 12.144 10.6464 11.9442 11.1289C11.7443 11.6114 11.692 12.1424 11.7939 12.6547C11.8958 13.1669 12.1473 13.6374 12.5166 14.0067C12.8859 14.3761 13.3564 14.6276 13.8687 14.7294C14.3809 14.8313 14.9119 14.779 15.3944 14.5792C15.8769 14.3793 16.2894 14.0408 16.5795 13.6066C16.8697 13.1723 17.0246 12.6618 17.0246 12.1395C17.0239 11.4393 16.7454 10.7681 16.2504 10.273C15.7553 9.7779 15.084 9.49946 14.3839 9.49876Z" fill="#063266"/>
<path d="M14.3838 27.1037L6.95811 18.3462C6.85493 18.2147 6.75282 18.0824 6.65179 17.9492C5.38335 16.2783 4.69811 14.2375 4.70118 12.1397C4.70118 9.57166 5.72131 7.10885 7.53716 5.29301C9.353 3.47716 11.8158 2.45703 14.3838 2.45703C16.9518 2.45703 19.4146 3.47716 21.2305 5.29301C23.0463 7.10885 24.0664 9.57166 24.0664 12.1397C24.0695 14.2365 23.3846 16.2765 22.1167 17.9466L22.1158 17.9492C22.1158 17.9492 21.8517 18.296 21.8121 18.3427L14.3838 27.1037ZM8.05753 16.8885C8.05753 16.8885 8.26263 17.1596 8.30928 17.2177L14.3838 24.382L20.4662 17.2081C20.505 17.1596 20.711 16.8868 20.7118 16.8859C21.748 15.5207 22.308 13.8535 22.3059 12.1397C22.3059 10.0386 21.4713 8.02354 19.9856 6.53785C18.4999 5.05216 16.4849 4.21751 14.3838 4.21751C12.2827 4.21751 10.2677 5.05216 8.782 6.53785C7.29631 8.02354 6.46166 10.0386 6.46166 12.1397C6.45981 13.8546 7.02041 15.5228 8.05753 16.8885Z" fill="#063266"/>
</svg>
