<svg width="24" height="24" viewBox="0 0 24 24" fill="none" xmlns="http://www.w3.org/2000/svg">
<path d="M9.15167 5.79603L12.0497 2.89795M12.0497 2.89795L14.9478 5.79603M12.0497 2.89795V12.5582M7.21961 9.66014C6.31928 9.66014 5.86911 9.66014 5.51458 9.80697C5.28001 9.90407 5.06687 10.0464 4.88736 10.226C4.70784 10.4055 4.56547 10.6186 4.46837 10.8532C4.32153 11.2077 4.32153 11.6579 4.32153 12.5582V17.1951C4.32153 18.2771 4.32153 18.8181 4.53213 19.2315C4.71736 19.5951 5.01291 19.8906 5.37643 20.0758C5.78893 20.2864 6.3299 20.2864 7.40992 20.2864H16.6905C17.7706 20.2864 18.3106 20.2864 18.7231 20.0758C19.0863 19.8904 19.3819 19.5948 19.5674 19.2315C19.778 18.8181 19.778 18.2781 19.778 17.198V12.5582C19.778 11.6579 19.778 11.2077 19.6311 10.8532C19.534 10.6186 19.3916 10.4055 19.2121 10.226C19.0326 10.0464 18.8195 9.90407 18.5849 9.80697C18.2304 9.66014 17.7802 9.66014 16.8799 9.66014" stroke="white" stroke-width="1.93205" stroke-linecap="round" stroke-linejoin="round"/>
</svg>
