<svg width="51" height="51" viewBox="0 0 51 51" fill="none" xmlns="http://www.w3.org/2000/svg">
<rect x="0.459276" y="0.459276" width="49.6018" height="49.6018" rx="5.28167" stroke="black" stroke-opacity="0.15" stroke-width="0.918551"/>
<path d="M27.5533 25.2599L34.5476 18.2818C34.8539 17.9755 35.026 17.5601 35.026 17.1269C35.026 16.6937 34.8539 16.2783 34.5476 15.972C34.2414 15.6657 33.8259 15.4937 33.3928 15.4937C32.9596 15.4937 32.5442 15.6657 32.2379 15.972L25.2598 22.9664L18.2816 15.972C17.9753 15.6657 17.5599 15.4937 17.1268 15.4937C16.6936 15.4937 16.2782 15.6657 15.9719 15.972C15.6656 16.2783 15.4935 16.6937 15.4935 17.1269C15.4935 17.5601 15.6656 17.9755 15.9719 18.2818L22.9663 25.2599L15.9719 32.238C15.8194 32.3892 15.6984 32.5691 15.6158 32.7674C15.5332 32.9656 15.4907 33.1782 15.4907 33.3929C15.4907 33.6076 15.5332 33.8203 15.6158 34.0185C15.6984 34.2167 15.8194 34.3966 15.9719 34.5478C16.1231 34.7003 16.303 34.8213 16.5012 34.9039C16.6994 34.9864 16.912 35.0289 17.1268 35.0289C17.3415 35.0289 17.5541 34.9864 17.7523 34.9039C17.9505 34.8213 18.1304 34.7003 18.2816 34.5478L25.2598 27.5534L32.2379 34.5478C32.3891 34.7003 32.569 34.8213 32.7672 34.9039C32.9654 34.9864 33.178 35.0289 33.3928 35.0289C33.6075 35.0289 33.8201 34.9864 34.0183 34.9039C34.2165 34.8213 34.3964 34.7003 34.5476 34.5478C34.7001 34.3966 34.8211 34.2167 34.9037 34.0185C34.9863 33.8203 35.0288 33.6076 35.0288 33.3929C35.0288 33.1782 34.9863 32.9656 34.9037 32.7674C34.8211 32.5691 34.7001 32.3892 34.5476 32.238L27.5533 25.2599Z" fill="#232738"/>
</svg>
