<svg width="24" height="24" viewBox="0 0 24 24" fill="none" xmlns="http://www.w3.org/2000/svg">
<g clip-path="url(#clip0_10_36)">
<path d="M23.2657 0.485759C23.196 0.312374 23.0623 0.172503 22.8921 0.0952456C22.722 0.0179882 22.5287 0.00929232 22.3523 0.070967C22.1759 0.132642 22.0301 0.259938 21.9452 0.426375C21.8603 0.592811 21.8429 0.785573 21.8965 0.964559C23.0113 4.16856 20.7985 6.56136 19.1113 7.84296L18.4297 6.86616C18.2005 6.53856 17.6881 6.26616 17.2897 6.26136L13.4641 6.27816C12.9967 6.29227 12.5419 6.43241 12.1477 6.68376L0.874857 14.5882C0.612651 14.7727 0.43424 15.0536 0.378688 15.3693C0.323135 15.6851 0.394968 16.01 0.578457 16.273L5.70126 23.6026C6.08526 24.1486 6.69846 24.0826 7.24566 23.701L18.5185 15.7954C18.8425 15.5662 19.2169 15.0718 19.3489 14.6938L20.5465 10.9198C20.6785 10.543 20.5981 9.96816 20.3689 9.64056L19.9537 9.04536C22.2193 7.30896 24.5713 4.24056 23.2657 0.485759ZM18.0205 11.7154C17.8128 11.8607 17.5785 11.9638 17.331 12.0185C17.0835 12.0733 16.8276 12.0788 16.578 12.0347C16.3284 11.9906 16.0899 11.8977 15.8762 11.7614C15.6625 11.625 15.4777 11.4479 15.3325 11.2402C15.0384 10.8197 14.9231 10.2998 15.012 9.79452C15.1008 9.28921 15.3866 8.83981 15.8065 8.54496C16.1356 8.31434 16.5286 8.19233 16.9305 8.19599C17.3324 8.19965 17.7231 8.32879 18.0481 8.56536C17.7217 8.76216 17.4973 8.87736 17.4553 8.89536C17.3065 8.96629 17.1863 9.08563 17.1142 9.23385C17.0422 9.38206 17.0226 9.55035 17.0587 9.71114C17.0948 9.87193 17.1845 10.0157 17.313 10.1188C17.4415 10.222 17.6013 10.2785 17.7661 10.279C17.8693 10.279 17.9749 10.255 18.0745 10.2082C18.3073 10.0978 18.5569 9.96696 18.8173 9.81216C18.8772 10.1722 18.8341 10.5419 18.6932 10.8786C18.5522 11.2153 18.319 11.5054 18.0205 11.7154Z" fill="black"/>
</g>
<defs>
<clipPath id="clip0_10_36">
<rect width="24" height="24" fill="white"/>
</clipPath>
</defs>
</svg>
