<svg width="21" height="20" viewBox="0 0 21 20" fill="none" xmlns="http://www.w3.org/2000/svg">
<path d="M12.4643 2.68686C12.4643 2.47335 12.3795 2.26859 12.2285 2.11762C12.0775 1.96665 11.8728 1.88184 11.6593 1.88184C11.4458 1.88184 11.241 1.96665 11.09 2.11762C10.9391 2.26859 10.8542 2.47335 10.8542 2.68686V8.32201H5.21908C5.00558 8.32201 4.80082 8.40683 4.64985 8.5578C4.49888 8.70877 4.41406 8.91353 4.41406 9.12704C4.41406 9.34054 4.49888 9.5453 4.64985 9.69627C4.80082 9.84724 5.00558 9.93206 5.21908 9.93206H10.8542V15.5672C10.8542 15.7807 10.9391 15.9855 11.09 16.1364C11.241 16.2874 11.4458 16.3722 11.6593 16.3722C11.8728 16.3722 12.0775 16.2874 12.2285 16.1364C12.3795 15.9855 12.4643 15.7807 12.4643 15.5672V9.93206H18.0994C18.3129 9.93206 18.5177 9.84724 18.6687 9.69627C18.8196 9.5453 18.9045 9.34054 18.9045 9.12704C18.9045 8.91353 18.8196 8.70877 18.6687 8.5578C18.5177 8.40683 18.3129 8.32201 18.0994 8.32201H12.4643V2.68686Z" fill="#063266"/>
</svg>
