<svg width="24" height="24" viewBox="0 0 24 24" fill="none" xmlns="http://www.w3.org/2000/svg">
<path d="M18.972 12.6575L13.176 18.4535C12.8382 18.7911 12.5985 19.2142 12.4824 19.6775L12.0324 21.4751C11.9881 21.6539 11.9907 21.8411 12.0401 22.0186C12.0894 22.1961 12.1838 22.3577 12.3142 22.4879C12.4445 22.6181 12.6062 22.7124 12.7838 22.7616C12.9613 22.8108 13.1485 22.8132 13.3272 22.7687L15.1248 22.3199C15.5882 22.204 16.0113 21.9642 16.3488 21.6263L22.1448 15.8303C22.5602 15.4083 22.7919 14.8392 22.7895 14.2471C22.7871 13.655 22.5508 13.0878 22.132 12.6691C21.7132 12.2505 21.146 12.0144 20.5538 12.0122C19.9617 12.01 19.3927 12.242 18.9708 12.6575M8.40005 2.9999C8.40005 2.84077 8.33683 2.68816 8.22431 2.57564C8.11179 2.46312 7.95918 2.3999 7.80005 2.3999C7.64092 2.3999 7.48831 2.46312 7.37578 2.57564C7.26326 2.68816 7.20005 2.84077 7.20005 2.9999V3.5999H6.60005C6.12266 3.5999 5.66482 3.78954 5.32726 4.12711C4.98969 4.46468 4.80005 4.92251 4.80005 5.3999V19.7999C4.80005 20.2773 4.98969 20.7351 5.32726 21.0727C5.66482 21.4103 6.12266 21.5999 6.60005 21.5999H10.8036C10.812 21.4631 10.8336 21.3239 10.8684 21.1835L11.3184 19.3859C11.4864 18.7114 11.8349 18.0954 12.3264 17.6039L18.1224 11.8079C18.4316 11.498 18.7975 11.2503 19.2 11.0783V5.3999C19.2 4.92251 19.0104 4.46468 18.6728 4.12711C18.3353 3.78954 17.8774 3.5999 17.4 3.5999H16.8V2.9999C16.8 2.84077 16.7368 2.68816 16.6243 2.57564C16.5118 2.46312 16.3592 2.3999 16.2 2.3999C16.0409 2.3999 15.8883 2.46312 15.7758 2.57564C15.6633 2.68816 15.6 2.84077 15.6 2.9999V3.5999H12.6V2.9999C12.6 2.84077 12.5368 2.68816 12.4243 2.57564C12.3118 2.46312 12.1592 2.3999 12 2.3999C11.8409 2.3999 11.6883 2.46312 11.5758 2.57564C11.4633 2.68816 11.4 2.84077 11.4 2.9999V3.5999H8.40005V2.9999ZM9.00005 8.3999H15C15.1592 8.3999 15.3118 8.46312 15.4243 8.57564C15.5368 8.68816 15.6 8.84077 15.6 8.9999C15.6 9.15903 15.5368 9.31164 15.4243 9.42417C15.3118 9.53669 15.1592 9.5999 15 9.5999H9.00005C8.84092 9.5999 8.68831 9.53669 8.57578 9.42417C8.46326 9.31164 8.40005 9.15903 8.40005 8.9999C8.40005 8.84077 8.46326 8.68816 8.57578 8.57564C8.68831 8.46312 8.84092 8.3999 9.00005 8.3999ZM15.6 12.5999C15.6 12.759 15.5368 12.9116 15.4243 13.0242C15.3118 13.1367 15.1592 13.1999 15 13.1999H9.00005C8.84092 13.1999 8.68831 13.1367 8.57578 13.0242C8.46326 12.9116 8.40005 12.759 8.40005 12.5999C8.40005 12.4408 8.46326 12.2882 8.57578 12.1756C8.68831 12.0631 8.84092 11.9999 9.00005 11.9999H15C15.1592 11.9999 15.3118 12.0631 15.4243 12.1756C15.5368 12.2882 15.6 12.4408 15.6 12.5999ZM9.00005 15.5999H11.4C11.5592 15.5999 11.7118 15.6631 11.8243 15.7756C11.9368 15.8882 12 16.0408 12 16.1999C12 16.359 11.9368 16.5116 11.8243 16.6242C11.7118 16.7367 11.5592 16.7999 11.4 16.7999H9.00005C8.84092 16.7999 8.68831 16.7367 8.57578 16.6242C8.46326 16.5116 8.40005 16.359 8.40005 16.1999C8.40005 16.0408 8.46326 15.8882 8.57578 15.7756C8.68831 15.6631 8.84092 15.5999 9.00005 15.5999Z" fill="black"/>
</svg>
