<svg width="24" height="24" viewBox="0 0 24 24" fill="none" xmlns="http://www.w3.org/2000/svg">
<path d="M13.3888 1.99121C11.5325 1.99121 9.96696 3.32776 9.96696 5.03809C9.96696 5.90199 10.3667 6.67027 11.0013 7.21932L11.3985 6.43791C11.0293 6.05345 10.8107 5.5629 10.8107 5.03809C10.8107 3.84887 11.9314 2.83496 13.3888 2.83496C14.8461 2.83496 15.9669 3.84887 15.9669 5.03809C15.9669 5.85385 15.4394 6.58712 14.6377 6.96718L14.287 7.97762C14.3756 7.95618 14.4634 7.93147 14.5501 7.90355L14.9794 8.65416C14.4954 8.99462 14.0269 9.41663 13.5247 9.94191L17.338 18.3509C19.6941 18.4596 21.9675 17.2102 23.1389 15.1629L18.0844 7.43621C17.1391 7.62498 16.3786 7.86062 15.6996 8.21424L15.3204 7.55124C16.2137 7.00679 16.8107 6.0939 16.8107 5.03813C16.8107 3.3278 15.2452 1.99126 13.3888 1.99126V1.99121ZM7.63886 2.26998C7.51418 2.27138 7.38321 2.29201 7.25674 2.33316C6.96752 2.4271 6.72283 2.6207 6.61643 2.82957L6.60293 2.85629L3.56055 7.18271C3.46047 7.3914 3.44889 7.69585 3.53913 7.97818C3.63147 8.26679 3.82249 8.5081 4.01735 8.60734L10.7524 12.0367C10.9433 12.134 11.2488 12.1494 11.5328 12.0567C11.8115 11.9658 12.0483 11.7809 12.1611 11.5649L13.3498 8.08398C13.3522 8.08398 13.3545 8.08412 13.3569 8.08416L13.6534 7.22963C13.6494 7.23001 13.6452 7.2301 13.6413 7.23048L13.8712 6.55712L13.8848 6.53049C13.9912 6.32162 14.0038 6.00924 13.9106 5.7204C13.8173 5.43155 13.6246 5.18813 13.4215 5.08468L11.9178 4.31907C11.6111 4.70241 11.517 5.25038 11.9016 5.7661L12.0005 5.93166L12.4827 6.18479L12.0957 6.94482L12.0889 6.94154L11.7084 7.69013C11.7105 7.69121 11.7126 7.69215 11.7147 7.69318L11.4192 8.2733L6.65721 5.84855L7.52936 4.13584L7.72071 3.7599L9.16699 4.4964C9.23993 4.03655 9.39771 3.59415 9.65144 3.16496L8.06735 2.35848C7.9495 2.29848 7.79918 2.26824 7.63886 2.26998ZM17.8542 8.42841L18.9831 10.4825L15.6145 12.3336L14.6888 10.6494L14.4856 10.2796L17.8542 8.42841ZM17.5211 9.57423L15.6315 10.6127L15.9475 11.1879L17.8372 10.1494L17.5211 9.57423ZM5.36721 10.2415L4.38892 12.1631L7.64711 13.8221L8.62554 11.9006L5.36721 10.2415ZM19.2991 11.0576L20.4279 13.1116L17.0593 14.9626L16.1337 13.2784L15.9306 12.9087L19.2992 11.0575L19.2991 11.0576ZM18.966 12.2034L17.0763 13.2418L17.3924 13.817L19.2821 12.7785L18.966 12.2034ZM4.67439 13.2552H4.6743L0.861206 20.7438L1.14822 21.6264L4.76997 14.5138L5.52175 14.8966L1.9001 22.0092L2.94893 21.6682L3.5568 21.4705L3.22933 20.4601L4.23696 20.1334L3.90902 19.1252L4.91777 18.7972L4.66605 18.0235L6.59589 14.2336L4.67439 13.2552Z" fill="black"/>
</svg>
