<svg width="27" height="27" viewBox="0 0 27 27" fill="none" xmlns="http://www.w3.org/2000/svg">
<path fill-rule="evenodd" clip-rule="evenodd" d="M9.59188 14.7325C9.6055 14.6452 9.64657 14.5646 9.70913 14.5022L18.0896 6.12173C18.1675 6.04379 18.2733 6 18.3835 6C18.4938 6 18.5995 6.04379 18.6775 6.12173L21.9122 9.3565C21.9899 9.43443 22.0336 9.53999 22.0336 9.65004C22.0336 9.76008 21.9899 9.86564 21.9122 9.94358L13.5301 18.3249C13.4677 18.3871 13.387 18.4279 13.2998 18.4413L9.47879 19.0284C9.41428 19.0382 9.34834 19.0328 9.28632 19.0125C9.2243 18.9922 9.16793 18.9575 9.12178 18.9114C9.07563 18.8652 9.04099 18.8089 9.02067 18.7468C9.00035 18.6848 8.99491 18.6189 9.0048 18.5544L9.59188 14.7325ZM10.3935 14.9936L9.9137 18.1203L13.0395 17.6396L21.03 9.65004L18.3831 7.00402L10.3935 14.9936Z" fill="black"/>
<path fill-rule="evenodd" clip-rule="evenodd" d="M13.3918 25.7122C20.1958 25.7122 25.7122 20.1958 25.7122 13.3918C25.7122 6.58768 20.1958 1.07134 13.3918 1.07134C6.58768 1.07134 1.07134 6.58768 1.07134 13.3918C1.07134 20.1958 6.58768 25.7122 13.3918 25.7122ZM13.3918 26.7835C20.7883 26.7835 26.7835 20.7883 26.7835 13.3918C26.7835 5.99522 20.7883 0 13.3918 0C5.99522 0 0 5.99522 0 13.3918C0 20.7883 5.99522 26.7835 13.3918 26.7835Z" fill="black"/>
</svg>
