<svg width="34" height="38" viewBox="0 0 34 38" fill="none" xmlns="http://www.w3.org/2000/svg">
<path d="M17.0037 38C18.1499 38.0004 19.2568 37.5783 20.1166 36.813C20.9764 36.0478 21.5299 34.9919 21.6732 33.8438C21.7132 33.5184 21.445 33.25 21.1204 33.25H12.8871C12.5624 33.25 12.2943 33.5184 12.3343 33.8438C12.4775 34.9919 13.031 36.0478 13.8908 36.813C14.7506 37.5783 15.8575 38.0004 17.0037 38ZM5.24187 11.875C5.24187 8.72555 6.48106 5.7051 8.68684 3.47811C10.8926 1.25111 13.8843 0 17.0037 0C20.1232 0 23.1148 1.25111 25.3206 3.47811C27.5264 5.7051 28.7656 8.72555 28.7656 11.875V18.8741C28.7656 18.9929 28.8009 19.1069 28.8644 19.2043L32.8705 25.2724C33.2275 25.8155 33.4321 26.4461 33.4626 27.0972C33.493 27.7483 33.3482 28.3955 33.0434 28.9702C32.7387 29.5448 32.2855 30.0254 31.7319 30.3608C31.1783 30.6962 30.545 30.8739 29.8994 30.875H4.10803C3.46108 30.8766 2.82589 30.7005 2.27049 30.3655C1.7151 30.0305 1.26042 29.5493 0.955156 28.9734C0.649893 28.3975 0.505547 27.7486 0.537577 27.0963C0.569608 26.4439 0.776808 25.8126 1.13699 25.27L5.14307 19.2043C5.207 19.1062 5.24132 18.9915 5.24187 18.8741V11.875ZM17.0037 3.5625C14.8201 3.5625 12.7259 4.43828 11.1819 5.99717C9.63786 7.55607 8.77043 9.67039 8.77043 11.875V18.8741C8.77043 19.6959 8.53048 20.4963 8.07883 21.1779L4.07274 27.2484C4.06798 27.2553 4.06551 27.2637 4.06569 27.2721L4.06804 27.2864C4.06804 27.2911 4.07274 27.2959 4.07745 27.3006L4.09156 27.3101L4.10803 27.3125H29.8994L29.9159 27.3101L29.93 27.3006L29.9394 27.2864L29.9418 27.2698C29.9419 27.2613 29.9395 27.253 29.9347 27.246L25.9286 21.1803C25.4774 20.4983 25.2367 19.6966 25.237 18.8765V11.875C25.237 9.67039 24.3696 7.55607 22.8255 5.99717C21.2815 4.43828 19.1873 3.5625 17.0037 3.5625Z" fill="#AAAAAA"/>
<circle cx="23.3334" cy="5.06654" r="3.8" fill="#7D66F3" stroke="white" stroke-width="2.53333"/>
</svg>
