<svg width="24" height="24" viewBox="0 0 24 24" fill="none" xmlns="http://www.w3.org/2000/svg">
<path d="M12.0001 21C11.7452 20.9997 11.5001 20.9021 11.3148 20.7272C11.1294 20.5522 11.0179 20.313 11.003 20.0586C10.988 19.8042 11.0708 19.5536 11.2344 19.3582C11.398 19.1627 11.63 19.0371 11.8831 19.007L12.0001 19L17.0001 19C17.2451 19 17.4815 18.91 17.6645 18.7473C17.8475 18.5845 17.9645 18.3603 17.9931 18.117L18.0001 18L18.0001 6C18.0001 5.75507 17.9102 5.51867 17.7474 5.33563C17.5846 5.1526 17.3604 5.03566 17.1171 5.007L17.0001 5L12.5001 5C12.2452 4.99972 12.0001 4.90212 11.8148 4.72715C11.6294 4.55218 11.5179 4.31305 11.503 4.05861C11.488 3.80416 11.5708 3.55362 11.7344 3.35817C11.898 3.16272 12.13 3.0371 12.3831 3.007L12.5001 3L17.0001 3C17.7653 2.99996 18.5016 3.29233 19.0584 3.81729C19.6151 4.34224 19.9502 5.06011 19.9951 5.824L20.0001 6L20.0001 18C20.0002 18.7652 19.7078 19.5015 19.1828 20.0583C18.6579 20.615 17.94 20.9501 17.1761 20.995L17.0001 21L12.0001 21ZM6.29312 15.536L3.46512 12.707C3.27765 12.5195 3.17234 12.2652 3.17234 12C3.17234 11.7348 3.27765 11.4805 3.46512 11.293L6.29312 8.464C6.48076 8.27649 6.73521 8.1712 7.00048 8.1713C7.26575 8.17139 7.52012 8.27686 7.70763 8.4645C7.89513 8.65214 8.00042 8.90658 8.00033 9.17185C8.00023 9.43712 7.89477 9.69149 7.70713 9.879L6.58613 11L12.0001 11C12.2653 11 12.5197 11.1054 12.7072 11.2929C12.8948 11.4804 13.0001 11.7348 13.0001 12C13.0001 12.2652 12.8948 12.5196 12.7072 12.7071C12.5197 12.8946 12.2653 13 12.0001 13L6.58613 13L7.70713 14.121C7.89477 14.3085 8.00023 14.5629 8.00033 14.8281C8.00042 15.0934 7.89513 15.3479 7.70762 15.5355C7.52012 15.7231 7.26575 15.8286 7.00048 15.8287C6.73521 15.8288 6.48076 15.7235 6.29312 15.536Z" fill="black"/>
</svg>
