<svg width="69" height="35" viewBox="0 0 69 35" fill="none" xmlns="http://www.w3.org/2000/svg">
<g clip-path="url(#clip0_181_3261)">
<path d="M65.2459 28.9571L66.9358 27.7255L67.4049 22.2529L65.9974 20.2222C65.9974 20.2222 65.8398 14.9072 65.2166 13.8112C64.5935 12.7152 60.5284 6.61944 60.5284 6.61944L62.0899 6.30788C62.0899 6.30788 62.7168 6.15026 59.2748 5.52712C55.8329 4.90398 40.83 3.808 34.7159 4.27718C28.6018 4.74637 16.1281 13.0451 16.1281 13.0451C10.5785 14.2181 6.20186 16.2487 4.1675 17.4987C2.13314 18.7486 2.14047 21.4098 2.14047 21.4098L0.73291 22.5058C0.73291 22.5058 0.73291 26.2556 1.83256 28.4439C2.6683 30.1191 5.13153 30.1447 5.99292 30.0641L19.5553 30.7972H51.5113L65.2459 28.9571Z" fill="white" stroke="black" stroke-width="1.46621" stroke-linecap="round" stroke-linejoin="round"/>
<path d="M62.1083 12.1401H60.3892V16.2015L63.5158 20.2666H64.5055L63.5965 14.2955L62.1083 12.1401Z" fill="#ED1C24"/>
<path d="M4.9483 24.559C4.9483 24.559 4.58175 27.1249 5.6814 27.4915C6.78105 27.858 6.78105 27.4915 6.78105 27.4915C6.78105 27.4915 8.03466 24.4637 10.8131 22.7263C13.7455 20.8935 19.9769 20.527 22.1762 28.5911H50.0341C50.0341 28.5911 50.4007 21.6266 58.0982 21.6266C59.4905 21.7042 60.8366 22.153 61.9969 22.9264C63.1571 23.6999 64.0891 24.7699 64.6962 26.0252V22.3597L59.5644 16.4949V13.5625C59.5644 13.5625 56.632 14.2956 55.5324 14.6622C54.4327 15.0287 47.4683 16.4949 45.6355 16.4949C43.8027 16.4949 21.0766 16.8615 19.6103 16.8615L14.4786 19.7939C12.4626 20.9448 4.9483 24.559 4.9483 24.559Z" fill="url(#paint0_linear_181_3261)"/>
<path d="M31.0396 4.58155L35.2549 0.366211" stroke="black" stroke-width="0.733103" stroke-linecap="round" stroke-linejoin="round"/>
<path d="M63.2079 11.7734H61.4888V15.8348L64.6155 19.8999H65.6051" stroke="black" stroke-width="0.733103" stroke-linecap="round" stroke-linejoin="round"/>
<path d="M39.8699 6.4585L38.3047 14.5849L20.9521 15.0541C23.064 12.7392 25.5404 10.7853 28.2832 9.26994C32.6781 6.92402 36.7432 6.59779 39.8699 6.4585Z" stroke="black" stroke-width="0.733103" stroke-linecap="round" stroke-linejoin="round"/>
<path d="M41.8456 6.30104L41.2188 14.5851C41.2188 14.5851 50.5988 14.2735 52.3179 13.8043C54.037 13.3352 57.6329 11.7736 57.6329 11.7736C57.3778 10.5327 56.7453 9.40104 55.8221 8.53355C54.8988 7.66607 53.7299 7.10522 52.4755 6.92784C47.945 6.14342 41.8456 6.30104 41.8456 6.30104Z" stroke="black" stroke-width="0.733103" stroke-linecap="round" stroke-linejoin="round"/>
<path d="M52.4756 6.92383V13.804" stroke="black" stroke-width="0.733103" stroke-linecap="round" stroke-linejoin="round"/>
<path d="M34.3091 16.4067H37.1425" stroke="black" stroke-width="0.733103" stroke-linecap="round" stroke-linejoin="round"/>
<path d="M53.3696 16.1208L56.1994 15.9595" stroke="black" stroke-width="0.733103" stroke-linecap="round" stroke-linejoin="round"/>
<path d="M5.05078 22.3337C5.05078 22.3337 5.05078 20.457 5.98915 19.6762C6.92752 18.8954 9.89659 17.6455 13.958 17.6455C13.958 17.6455 12.6384 19.0824 8.64298 20.9445C7.47617 21.4831 6.27636 21.9471 5.05078 22.3337Z" stroke="black" stroke-width="0.733103" stroke-linecap="round" stroke-linejoin="round"/>
<path d="M14.4787 34.4555C17.5154 34.4555 19.977 31.9939 19.977 28.9573C19.977 25.9206 17.5154 23.459 14.4787 23.459C11.4421 23.459 8.98047 25.9206 8.98047 28.9573C8.98047 31.9939 11.4421 34.4555 14.4787 34.4555Z" fill="url(#paint1_linear_181_3261)" stroke="black" stroke-width="0.733103" stroke-linecap="round" stroke-linejoin="round"/>
<path d="M14.4788 31.8897C16.0983 31.8897 17.4112 30.5768 17.4112 28.9573C17.4112 27.3378 16.0983 26.0249 14.4788 26.0249C12.8593 26.0249 11.5464 27.3378 11.5464 28.9573C11.5464 30.5768 12.8593 31.8897 14.4788 31.8897Z" fill="white" stroke="black" stroke-width="0.733103" stroke-linecap="round" stroke-linejoin="round"/>
<path d="M57.7317 34.4555C60.7683 34.4555 63.2299 31.9939 63.2299 28.9573C63.2299 25.9206 60.7683 23.459 57.7317 23.459C54.6951 23.459 52.2334 25.9206 52.2334 28.9573C52.2334 31.9939 54.6951 34.4555 57.7317 34.4555Z" fill="url(#paint2_linear_181_3261)" stroke="black" stroke-width="0.733103" stroke-linecap="round" stroke-linejoin="round"/>
<path d="M57.7317 31.8897C59.3513 31.8897 60.6641 30.5768 60.6641 28.9573C60.6641 27.3378 59.3513 26.0249 57.7317 26.0249C56.1122 26.0249 54.7993 27.3378 54.7993 28.9573C54.7993 30.5768 56.1122 31.8897 57.7317 31.8897Z" fill="white" stroke="black" stroke-width="0.733103" stroke-linecap="round" stroke-linejoin="round"/>
</g>
<defs>
<linearGradient id="paint0_linear_181_3261" x1="34.7929" y1="13.5625" x2="34.7929" y2="28.5911" gradientUnits="userSpaceOnUse">
<stop stop-color="white" stop-opacity="0.5"/>
<stop offset="1" stop-color="#ADADAD"/>
</linearGradient>
<linearGradient id="paint1_linear_181_3261" x1="8.98047" y1="28.9573" x2="19.977" y2="28.9573" gradientUnits="userSpaceOnUse">
<stop stop-color="#656565"/>
<stop offset="1" stop-color="#171717"/>
</linearGradient>
<linearGradient id="paint2_linear_181_3261" x1="52.2334" y1="-0.000304365" x2="63.2299" y2="-0.000304365" gradientUnits="userSpaceOnUse">
<stop stop-color="#656565"/>
<stop offset="1" stop-color="#171717"/>
</linearGradient>
<clipPath id="clip0_181_3261">
<rect width="68.1382" height="34.8224" fill="white"/>
</clipPath>
</defs>
</svg>
