<svg width="31" height="31" viewBox="0 0 31 31" fill="none" xmlns="http://www.w3.org/2000/svg">
<path d="M15.4345 17.3016L20.7254 22.6048C20.9576 22.837 21.2726 22.9675 21.601 22.9675C21.9294 22.9675 22.2444 22.837 22.4767 22.6048C22.7089 22.3725 22.8394 22.0576 22.8394 21.7291C22.8394 21.4007 22.7089 21.0857 22.4767 20.8535L17.1735 15.5627L22.4767 10.2718C22.7089 10.0396 22.8394 9.72463 22.8394 9.39621C22.8394 9.06778 22.7089 8.7528 22.4767 8.52057C22.2444 8.28833 21.9294 8.15787 21.601 8.15787C21.2726 8.15787 20.9576 8.28833 20.7254 8.52057L15.4346 13.8237L10.1437 8.52057C10.0291 8.40497 9.89267 8.31322 9.74238 8.25061C9.59209 8.188 9.43089 8.15576 9.26808 8.15576C9.10528 8.15576 8.94408 8.188 8.79379 8.25061C8.6435 8.31322 8.5071 8.40497 8.39245 8.52057C8.27685 8.63522 8.1851 8.77162 8.12249 8.92191C8.05988 9.0722 8.02764 9.2334 8.02764 9.39621C8.02764 9.55901 8.05988 9.72021 8.12249 9.8705C8.1851 10.0208 8.27685 10.1572 8.39245 10.2718L13.6956 15.5627L8.39245 20.8535C8.27685 20.9682 8.1851 21.1046 8.12249 21.2548C8.05987 21.4051 8.02764 21.5663 8.02764 21.7291C8.02764 21.8919 8.05987 22.0531 8.12249 22.2034C8.1851 22.3537 8.27685 22.4901 8.39245 22.6048C8.5071 22.7204 8.6435 22.8121 8.79379 22.8747C8.94408 22.9373 9.10527 22.9696 9.26808 22.9696C9.43089 22.9696 9.59209 22.9373 9.74238 22.8747C9.89267 22.8121 10.0291 22.7204 10.1437 22.6048L15.4345 17.3016Z" fill="#FFFCFF"/>
</svg>
