<svg width="30" height="31" viewBox="0 0 30 31" fill="none" xmlns="http://www.w3.org/2000/svg">
<path d="M13.8706 16.7931L13.8619 24.2842C13.8619 24.6126 13.9924 24.9276 14.2246 25.1598C14.4569 25.3921 14.7718 25.5225 15.1003 25.5225C15.4287 25.5225 15.7437 25.3921 15.9759 25.1598C16.2081 24.9276 16.3386 24.6126 16.3386 24.2842L16.3299 16.7931L23.821 16.8018C24.1494 16.8018 24.4644 16.6714 24.6966 16.4391C24.9288 16.2069 25.0593 15.8919 25.0593 15.5635C25.0593 15.2351 24.9288 14.9201 24.6966 14.6879C24.4644 14.4556 24.1494 14.3252 23.821 14.3252L16.3299 14.3339L16.3386 6.8428C16.3393 6.67999 16.3077 6.51866 16.2457 6.36812C16.1837 6.21758 16.0925 6.0808 15.9774 5.96567C15.8623 5.85055 15.7255 5.75936 15.5749 5.69736C15.4244 5.63537 15.2631 5.60379 15.1003 5.60446C14.9375 5.60379 14.7761 5.63537 14.6256 5.69736C14.475 5.75936 14.3383 5.85055 14.2231 5.96567C14.108 6.0808 14.0168 6.21758 13.9548 6.36812C13.8928 6.51866 13.8613 6.67999 13.8619 6.8428L13.8706 14.3339L6.37957 14.3252C6.21676 14.3245 6.05543 14.3561 5.90488 14.4181C5.75434 14.4801 5.61756 14.5712 5.50244 14.6864C5.38732 14.8015 5.29613 14.9383 5.23413 15.0888C5.17213 15.2394 5.14056 15.4007 5.14123 15.5635C5.14056 15.7263 5.17213 15.8876 5.23413 16.0382C5.29613 16.1887 5.38732 16.3255 5.50244 16.4406C5.61756 16.5557 5.75434 16.6469 5.90489 16.7089C6.05543 16.7709 6.21676 16.8025 6.37957 16.8018L13.8706 16.7931Z" fill="#6B6D81"/>
</svg>
