<svg width="25" height="25" viewBox="0 0 25 25" fill="none" xmlns="http://www.w3.org/2000/svg">
<path d="M12.174 2.0542C10.047 2.05409 8.00587 2.89349 6.49428 4.38996C4.9827 5.88642 4.12283 7.91901 4.10156 10.0459C4.10156 15.5756 11.2154 21.7308 11.5181 21.9932C11.7009 22.1495 11.9335 22.2354 12.174 22.2354C12.4145 22.2354 12.6471 22.1495 12.8299 21.9932C13.1831 21.7308 20.2465 15.5756 20.2465 10.0459C20.2252 7.91901 19.3654 5.88642 17.8538 4.38996C16.3422 2.89349 14.3011 2.05409 12.174 2.0542ZM12.174 19.8641C10.4889 18.2597 6.11968 13.8097 6.11968 10.0459C6.11968 8.44023 6.75755 6.90028 7.89296 5.76487C9.02837 4.62946 10.5683 3.99159 12.174 3.99159C13.7797 3.99159 15.3197 4.62946 16.4551 5.76487C17.5905 6.90028 18.2284 8.44023 18.2284 10.0459C18.2284 13.7795 13.8592 18.2597 12.174 19.8641Z" fill="#322651"/>
<path d="M12.1738 6.09033C11.4753 6.09033 10.7925 6.29746 10.2117 6.68553C9.6309 7.0736 9.17823 7.62518 8.91093 8.27051C8.64362 8.91585 8.57368 9.62595 8.70995 10.311C8.84622 10.9961 9.18259 11.6254 9.6765 12.1193C10.1704 12.6132 10.7997 12.9496 11.4848 13.0859C12.1699 13.2221 12.88 13.1522 13.5253 12.8849C14.1707 12.6176 14.7222 12.1649 15.1103 11.5841C15.4984 11.0034 15.7055 10.3205 15.7055 9.62204C15.7055 8.68537 15.3334 7.78707 14.6711 7.12474C14.0088 6.46242 13.1105 6.09033 12.1738 6.09033ZM12.1738 11.1356C11.8744 11.1356 11.5818 11.0469 11.3329 10.8805C11.084 10.7142 10.89 10.4778 10.7754 10.2013C10.6609 9.92469 10.6309 9.62036 10.6893 9.32675C10.7477 9.03314 10.8918 8.76345 11.1035 8.55177C11.3152 8.34009 11.5849 8.19593 11.8785 8.13753C12.1721 8.07913 12.4764 8.1091 12.753 8.22366C13.0296 8.33822 13.266 8.53222 13.4323 8.78113C13.5986 9.03004 13.6874 9.32268 13.6874 9.62204C13.6874 10.0235 13.5279 10.4085 13.2441 10.6923C12.9602 10.9762 12.5752 11.1356 12.1738 11.1356Z" fill="#322651"/>
</svg>
