<svg width="30" height="29" viewBox="0 0 30 29" fill="none" xmlns="http://www.w3.org/2000/svg">
<g clip-path="url(#clip0_8_516)">
<path fill-rule="evenodd" clip-rule="evenodd" d="M15.2921 27.2221C22.3481 27.2221 28.0688 21.5015 28.0688 14.4454C28.0688 7.38928 22.3481 1.66864 15.2921 1.66864C8.23596 1.66864 2.51532 7.38928 2.51532 14.4454C2.51532 21.5015 8.23596 27.2221 15.2921 27.2221ZM15.2921 28.3331C22.9625 28.3331 29.1798 22.1159 29.1798 14.4454C29.1798 6.77489 22.9625 0.557617 15.2921 0.557617C7.62157 0.557617 1.4043 6.77489 1.4043 14.4454C1.4043 22.1159 7.62157 28.3331 15.2921 28.3331Z" fill="black"/>
<path d="M14.1131 8.62066C14.1131 8.52468 14.1512 8.43264 14.2191 8.36478C14.2869 8.29691 14.379 8.25879 14.4749 8.25879C14.5709 8.25879 14.663 8.29691 14.7308 8.36478C14.7987 8.43264 14.8368 8.52468 14.8368 8.62066L14.8383 16.2199C14.8383 16.3159 14.8001 16.4079 14.7323 16.4758C14.6644 16.5437 14.5724 16.5818 14.4764 16.5818C14.3804 16.5818 14.2884 16.5437 14.2205 16.4758C14.1526 16.4079 14.1145 16.3159 14.1145 16.2199L14.1131 8.62066Z" fill="black"/>
<path d="M14.7099 8.89912C14.7811 8.8369 14.825 8.74932 14.8325 8.65511C14.8399 8.56089 14.8102 8.46751 14.7497 8.39491C14.6892 8.3223 14.6027 8.27624 14.5087 8.26656C14.4147 8.25687 14.3206 8.28433 14.2466 8.34307L12.0745 10.1531C12.0367 10.1831 12.0053 10.2204 11.9821 10.2627C11.9589 10.3051 11.9444 10.3516 11.9394 10.3996C11.9345 10.4476 11.9392 10.4962 11.9532 10.5423C11.9673 10.5885 11.9905 10.6314 12.0214 10.6685C12.0523 10.7056 12.0903 10.7361 12.1332 10.7583C12.1761 10.7804 12.2229 10.7938 12.2711 10.7976C12.3192 10.8014 12.3676 10.7955 12.4134 10.7803C12.4592 10.7652 12.5015 10.741 12.5379 10.7092L14.7099 8.89912Z" fill="black"/>
<path d="M15.1123 8.64534C15.0745 8.61535 15.0431 8.5781 15.0199 8.53579C14.9967 8.49348 14.9822 8.44695 14.9772 8.39895C14.9723 8.35096 14.977 8.30245 14.9911 8.2563C15.0052 8.21015 15.0283 8.16727 15.0592 8.13021C15.0901 8.09314 15.1281 8.06262 15.171 8.04045C15.2138 8.01828 15.2607 8.00491 15.3088 8.00112C15.3569 7.99733 15.4053 8.00319 15.4511 8.01837C15.4969 8.03356 15.5392 8.05774 15.5755 8.08951L17.7467 9.89886C17.8178 9.96106 17.8617 10.0486 17.8692 10.1428C17.8766 10.237 17.8469 10.3303 17.7864 10.4029C17.7259 10.4755 17.6395 10.5215 17.5455 10.5312C17.4515 10.5409 17.3575 10.5134 17.2835 10.4547L15.1123 8.64534ZM17.3327 13.0717C17.2367 13.0717 17.1447 13.0336 17.0768 12.9657C17.009 12.8979 16.9708 12.8058 16.9708 12.7099C16.9708 12.6139 17.009 12.5218 17.0768 12.454C17.1447 12.3861 17.2367 12.348 17.3327 12.348H17.9964C18.9163 12.348 19.6849 12.9928 19.6849 13.8237V18.8341C19.6849 19.6643 18.9163 20.3091 17.9964 20.3091H12.6892C11.7693 20.3091 11 19.6643 11 18.8341V13.8237C11 12.9921 11.7693 12.348 12.6892 12.348H13.3522C13.4481 12.348 13.5402 12.3861 13.608 12.454C13.6759 12.5218 13.714 12.6139 13.714 12.7099C13.714 12.8058 13.6759 12.8979 13.608 12.9657C13.5402 13.0336 13.4481 13.0717 13.3522 13.0717H12.6892C12.1435 13.0717 11.7237 13.4235 11.7237 13.8237V18.8341C11.7237 19.2336 12.1435 19.5854 12.6892 19.5854H17.9964C18.5421 19.5854 18.9611 19.2336 18.9611 18.8341V13.8237C18.9611 13.4235 18.5414 13.0717 17.9964 13.0717H17.3327Z" fill="black"/>
</g>
<defs>
<clipPath id="clip0_8_516">
<rect width="28.8865" height="28.8865" fill="white" transform="translate(0.847656)"/>
</clipPath>
</defs>
</svg>
