<svg width="94" height="31" viewBox="0 0 94 31" fill="none" xmlns="http://www.w3.org/2000/svg">
<g clip-path="url(#clip0_181_3240)">
<path d="M22.4517 26.7397H66.4378C66.4378 26.7397 68.7727 26.7397 69.5682 26.7691" fill="white"/>
<path d="M22.4517 26.7397H66.4378C66.4378 26.7397 68.7727 26.7397 69.5682 26.7691" stroke="black" stroke-width="1.46621" stroke-linecap="round" stroke-linejoin="round"/>
<path d="M79.3363 26.2301C79.8055 26.1641 82.9065 26.0945 83.3207 26.0139C88.9436 24.9252 91.865 23.8255 92.5908 23.0924C93.3166 22.3593 93.1369 16.1976 93.1369 14.3832C93.1144 12.8604 92.9313 11.3443 92.5908 9.85994C92.5908 9.85994 80.9088 8.76029 79.6369 8.21779C76.7045 6.31173 74.4648 4.29569 67.9072 1.85813C59.7478 0.0253704 45.225 0.94908 45.225 0.94908C45.225 0.94908 40.2583 1.38894 29.4267 6.41436C24.3463 8.77495 22.7261 9.684 22.7261 9.684C22.7261 9.684 12.0081 12.2242 6.74813 13.8554C1.48812 15.4865 2.3935 18.3933 2.3935 18.3933L0.758681 19.2986C0.758681 19.2986 0.395795 24.5587 2.3935 25.6583C4.3912 26.758 7.11102 26.758 8.92544 26.758H12.4627" fill="white"/>
<path d="M79.3363 26.2301C79.8055 26.1641 82.9065 26.0945 83.3207 26.0139C88.9436 24.9252 91.865 23.8255 92.5908 23.0924C93.3166 22.3593 93.1369 16.1976 93.1369 14.3832C93.1144 12.8604 92.9313 11.3443 92.5908 9.85994C92.5908 9.85994 80.9088 8.76029 79.6369 8.21779C76.7045 6.31173 74.4648 4.29569 67.9072 1.85813C59.7478 0.0253703 45.225 0.94908 45.225 0.94908C45.225 0.94908 40.2583 1.38894 29.4267 6.41436C24.3463 8.77495 22.7261 9.684 22.7261 9.684C22.7261 9.684 12.0081 12.2242 6.74813 13.8554C1.48812 15.4865 2.3935 18.3933 2.3935 18.3933L0.758681 19.2986C0.758681 19.2986 0.395795 24.5587 2.3935 25.6583C4.3912 26.758 7.11102 26.758 8.92544 26.758H12.4627" stroke="black" stroke-width="1.46621" stroke-linecap="round" stroke-linejoin="round"/>
<path d="M13.4343 15.0503C13.4343 15.0503 11.99 17.1176 10.1096 17.8727C8.22923 18.6278 5.09521 19.1044 5.09521 19.1044C5.13617 18.5699 5.33104 18.0587 5.65629 17.6327C5.98153 17.2066 6.42322 16.8839 6.92797 16.7034C9.18593 15.7981 10.4835 15.5378 13.4343 15.0503Z" stroke="black" stroke-width="0.733103" stroke-linecap="round" stroke-linejoin="round"/>
<path d="M3.45312 21.5566C3.45312 21.5566 3.26984 22.8286 3.99928 23.3894C4.72872 23.9502 6.53948 23.7559 6.53948 23.7559" stroke="black" stroke-width="0.733103" stroke-linecap="round" stroke-linejoin="round"/>
<path d="M89.5045 12.397C89.5045 12.397 84.6037 12.5766 83.6983 13.3024C82.793 14.0281 82.9652 13.8485 82.9652 13.8485C82.9652 13.8485 84.4314 16.572 89.6805 16.2091L89.7464 14.6843C89.7627 14.317 89.7467 13.9491 89.6988 13.5846L89.5045 12.397Z" fill="#ED1C24"/>
<path d="M50.5403 3.45264L49.6313 11.6157L26.0254 12.5248C26.0254 12.5248 35.8416 7.2611 38.928 5.99284C42.0144 4.72457 44.9138 3.45264 50.5403 3.45264Z" stroke="black" stroke-width="0.733103" stroke-linecap="round" stroke-linejoin="round"/>
<path d="M53.8026 3.45277L52.8936 11.6159L72.2988 10.5162L74.1022 8.3389C74.2305 8.50751 69.2307 4.98129 65.5946 4.16388C62.3652 3.45277 59.2422 3.29882 53.8026 3.45277Z" stroke="black" stroke-width="0.733103" stroke-linecap="round" stroke-linejoin="round"/>
<path d="M90.2379 11.6636C90.2379 11.6636 85.3371 11.8432 84.4317 12.569C83.5264 13.2947 83.6986 13.1151 83.6986 13.1151C83.6986 13.1151 85.1648 15.8386 90.4139 15.4757L90.4798 13.9509C90.4961 13.5836 90.4801 13.2157 90.4322 12.8512L90.2379 11.6636Z" stroke="black" stroke-width="0.733103" stroke-linecap="round" stroke-linejoin="round"/>
<path d="M17.2722 30.1049C20.3088 30.1049 22.7705 27.6433 22.7705 24.6067C22.7705 21.5701 20.3088 19.1084 17.2722 19.1084C14.2356 19.1084 11.7739 21.5701 11.7739 24.6067C11.7739 27.6433 14.2356 30.1049 17.2722 30.1049Z" fill="url(#paint0_linear_181_3240)" stroke="black" stroke-width="0.733103" stroke-linecap="round" stroke-linejoin="round"/>
<path d="M9.21493 23.3786C8.8191 23.1813 8.44965 22.935 8.11528 22.6455C7.38218 21.9124 7.01562 20.0796 7.01562 20.0796C9.3572 19.7455 11.5473 18.7251 13.3093 17.1472C13.8161 16.6972 14.2856 16.2068 14.7132 15.681L16.546 13.8482L24.1702 13.7529L41.6547 13.5367L60.928 13.2984L69.7252 13.1884L73.7096 13.1371C74.2595 13.1371 75.0292 12.9795 75.5681 13.1151C76.4075 13.3241 77.4558 13.412 78.2329 13.7822C78.812 14.0572 78.8963 14.6363 79.3069 15.1641C79.8765 15.8709 80.6015 16.4366 81.4255 16.8173C82.7158 17.4331 84.1417 17.62 85.5346 17.8583C86.5793 18.0342 89.8965 18.2468 90.9595 18.2468C91.3261 18.2468 90.9595 21.9124 90.9595 21.9124C88.7309 22.8691 83.8595 23.9724 81.3999 23.7451C81.4329 23.7451 80.9857 22.015 80.9234 21.861C80.6678 21.218 80.3263 20.6125 79.908 20.0613C79.0733 18.9539 77.9404 18.1071 76.6421 17.62C71.7852 15.8386 67.13 19.4528 67.13 24.4745H24.2435C24.5661 24.4745 23.9063 22.2349 23.8477 22.0406C23.5564 20.9061 22.9562 19.8745 22.1139 19.0606C21.1118 18.1398 19.8619 17.5329 18.5186 17.3146C17.1754 17.0964 15.7976 17.2765 14.5556 17.8326C13.2451 18.4731 12.1122 19.426 11.2566 20.6074C11.0697 20.8603 9.37988 23.4592 9.21493 23.3786Z" fill="url(#paint1_linear_181_3240)"/>
<path d="M74.1535 30.1049C77.1902 30.1049 79.6518 27.6433 79.6518 24.6067C79.6518 21.5701 77.1902 19.1084 74.1535 19.1084C71.1169 19.1084 68.6553 21.5701 68.6553 24.6067C68.6553 27.6433 71.1169 30.1049 74.1535 30.1049Z" fill="url(#paint2_linear_181_3240)" stroke="black" stroke-width="0.733103" stroke-linecap="round" stroke-linejoin="round"/>
<path d="M17.2718 27.5391C18.8913 27.5391 20.2042 26.2263 20.2042 24.6067C20.2042 22.9872 18.8913 21.6743 17.2718 21.6743C15.6522 21.6743 14.3394 22.9872 14.3394 24.6067C14.3394 26.2263 15.6522 27.5391 17.2718 27.5391Z" fill="white" stroke="black" stroke-width="0.733103" stroke-linecap="round" stroke-linejoin="round"/>
<path d="M74.0691 27.5391C75.6887 27.5391 77.0015 26.2263 77.0015 24.6067C77.0015 22.9872 75.6887 21.6743 74.0691 21.6743C72.4496 21.6743 71.1367 22.9872 71.1367 24.6067C71.1367 26.2263 72.4496 27.5391 74.0691 27.5391Z" fill="white" stroke="black" stroke-width="0.733103" stroke-linecap="round" stroke-linejoin="round"/>
<path d="M46.8307 14.4824L43.748 14.5851" stroke="black" stroke-width="0.733103" stroke-linecap="round" stroke-linejoin="round"/>
<path d="M71.3495 13.3462L68.2705 13.5405" stroke="black" stroke-width="0.733103" stroke-linecap="round" stroke-linejoin="round"/>
<path d="M67.1632 4.95557L66.7417 10.7031" stroke="black" stroke-width="0.733103" stroke-linecap="round" stroke-linejoin="round"/>
</g>
<defs>
<linearGradient id="paint0_linear_181_3240" x1="11.7739" y1="24.6067" x2="22.7705" y2="24.6067" gradientUnits="userSpaceOnUse">
<stop stop-color="#656565"/>
<stop offset="1" stop-color="#171717"/>
</linearGradient>
<linearGradient id="paint1_linear_181_3240" x1="49.0664" y1="13.0565" x2="49.0664" y2="24.4782" gradientUnits="userSpaceOnUse">
<stop stop-color="white" stop-opacity="0.5"/>
<stop offset="1" stop-color="#ADADAD"/>
</linearGradient>
<linearGradient id="paint2_linear_181_3240" x1="68.6553" y1="24.6067" x2="79.6518" y2="24.6067" gradientUnits="userSpaceOnUse">
<stop stop-color="#656565"/>
<stop offset="1" stop-color="#171717"/>
</linearGradient>
<clipPath id="clip0_181_3240">
<rect width="93.8885" height="30.4714" fill="white"/>
</clipPath>
</defs>
</svg>
