<svg width="24" height="24" viewBox="0 0 24 24" fill="none" xmlns="http://www.w3.org/2000/svg">
<path d="M2.27539 3.95589C2.27556 3.60101 2.37227 3.25287 2.55515 2.94875C2.73804 2.64463 3.00021 2.39599 3.31358 2.22947C3.62696 2.06294 3.97974 1.98481 4.33412 2.00343C4.68851 2.02205 5.03115 2.13673 5.32535 2.33518C5.61955 2.53363 5.85422 2.80837 6.00422 3.12999C6.15423 3.4516 6.21391 3.80796 6.17689 4.1609C6.13986 4.51383 6.00752 4.85005 5.79404 5.13353C5.58056 5.41701 5.29399 5.63708 4.96501 5.77016V11.0467H11.3223V5.77016C10.9015 5.59993 10.553 5.28864 10.3365 4.88963C10.12 4.49063 10.049 4.02876 10.1358 3.58317C10.2225 3.13759 10.4615 2.73603 10.8118 2.44732C11.1621 2.15862 11.6019 2.00073 12.0558 2.00073C12.5098 2.00073 12.9496 2.15862 13.2999 2.44732C13.6502 2.73603 13.8892 3.13759 13.9759 3.58317C14.0626 4.02876 13.9916 4.49063 13.7752 4.88963C13.5587 5.28864 13.2102 5.59993 12.7894 5.77016V11.0467H15.968C16.9108 11.0467 17.5446 11.0447 18.017 10.9821C18.4679 10.9205 18.6615 10.8159 18.7887 10.6887C18.9158 10.5616 19.0205 10.3679 19.0821 9.91608C19.1447 9.44466 19.1466 8.81089 19.1466 7.86806V5.77016C18.7258 5.59993 18.3773 5.28864 18.1608 4.88963C17.9443 4.49063 17.8734 4.02876 17.9601 3.58317C18.0468 3.13759 18.2858 2.73603 18.6361 2.44732C18.9864 2.15862 19.4262 2.00073 19.8802 2.00073C20.3341 2.00073 20.7739 2.15862 21.1242 2.44732C21.4745 2.73603 21.7135 3.13759 21.8002 3.58317C21.8869 4.02876 21.816 4.49063 21.5995 4.88963C21.383 5.28864 21.0345 5.59993 20.6137 5.77016V7.91892C20.6137 8.7972 20.6137 9.53073 20.5354 10.1117C20.4533 10.7259 20.2714 11.2804 19.8254 11.7255C19.3804 12.1714 18.8258 12.3534 18.2116 12.4355C17.6307 12.5138 16.8981 12.5138 16.0188 12.5138H12.7894V17.7903C13.2102 17.9605 13.5587 18.2718 13.7752 18.6708C13.9916 19.0698 14.0626 19.5317 13.9759 19.9773C13.8892 20.4229 13.6502 20.8244 13.2999 21.1131C12.9496 21.4018 12.5098 21.5597 12.0558 21.5597C11.6019 21.5597 11.1621 21.4018 10.8118 21.1131C10.4615 20.8244 10.2225 20.4229 10.1358 19.9773C10.049 19.5317 10.12 19.0698 10.3365 18.6708C10.553 18.2718 10.9015 17.9605 11.3223 17.7903V12.5138H4.96501V17.7903C5.38583 17.9605 5.73434 18.2718 5.95082 18.6708C6.16729 19.0698 6.23826 19.5317 6.15155 19.9773C6.06483 20.4229 5.82585 20.8244 5.47554 21.1131C5.12524 21.4018 4.68542 21.5597 4.23148 21.5597C3.77753 21.5597 3.33772 21.4018 2.98742 21.1131C2.63711 20.8244 2.39812 20.4229 2.31141 19.9773C2.2247 19.5317 2.29566 19.0698 2.51214 18.6708C2.72862 18.2718 3.07713 17.9605 3.49795 17.7903V5.77016C3.13659 5.62398 2.82715 5.37318 2.60932 5.04992C2.39149 4.72666 2.27521 4.34569 2.27539 3.95589Z" fill="#063266"/>
<path fill-rule="evenodd" clip-rule="evenodd" d="M17.1896 14.7145C17.1896 14.5199 17.2669 14.3334 17.4044 14.1958C17.542 14.0582 17.7286 13.981 17.9231 13.981H20.1589C21.5037 13.981 22.5688 15.0901 22.5688 16.4261C22.5706 16.9288 22.4175 17.4198 22.1303 17.8325C21.8431 18.2451 21.4359 18.5593 20.9638 18.7323L22.4602 21.1774C22.5106 21.2595 22.5443 21.3508 22.5594 21.4459C22.5744 21.5411 22.5706 21.6383 22.5482 21.732C22.5257 21.8256 22.485 21.914 22.4283 21.9919C22.3717 22.0699 22.3003 22.1359 22.2182 22.1862C22.136 22.2366 22.0448 22.2703 21.9496 22.2854C21.8545 22.3004 21.7573 22.2966 21.6636 22.2742C21.5699 22.2517 21.4816 22.211 21.4037 22.1543C21.3257 22.0977 21.2597 22.0263 21.2093 21.9442L19.3286 18.8712H18.6566V21.5608C18.6566 21.7553 18.5794 21.9419 18.4418 22.0795C18.3042 22.217 18.1177 22.2943 17.9231 22.2943C17.7286 22.2943 17.542 22.217 17.4044 22.0795C17.2669 21.9419 17.1896 21.7553 17.1896 21.5608V14.7145ZM18.6566 17.4041H20.1589C20.6655 17.4041 21.1017 16.9806 21.1017 16.4261C21.1017 15.8715 20.6655 15.448 20.1589 15.448H18.6566V17.4041Z" fill="#063266"/>
</svg>
