<svg width="105" height="40" viewBox="0 0 105 40" fill="none" xmlns="http://www.w3.org/2000/svg">
<g clip-path="url(#clip0_181_3100)">
<path d="M29.5915 12.1437C29.5915 12.1437 24.5954 12.9317 21.4394 13.0637C18.2834 13.1957 5.13153 15.5636 4.34711 15.9558C3.56269 16.348 3.29877 17.0078 3.03485 17.4037C2.77094 17.7996 0.930848 20.8199 0.930848 21.4797C0.945979 22.2318 1.03437 22.9807 1.19476 23.7157C1.32672 24.2399 1.19476 24.2399 0.930848 24.7677C0.666931 25.2955 0.666931 25.4238 0.930848 27.1356C1.19476 28.8474 1.06281 28.4515 1.58697 29.1077C2.11114 29.7638 4.08685 30.9404 5.0069 31.2117C5.92694 31.4829 9.73908 31.7358 10.003 31.7358H10.2632L31.9558 33.8398H72.8482L93.3751 30.9477L102.447 29.7638C102.447 29.7638 103.221 29.236 103.367 28.5908C103.514 27.9457 103.891 23.7267 102.971 22.9386C102.532 22.5918 102.134 22.1944 101.787 21.7546C101.787 21.7546 102.312 17.6786 101.787 16.1024L102.576 15.9705C102.576 15.9705 102.839 14.5226 100.34 11.2383C97.8397 7.95398 95.8676 4.92627 95.8676 4.92627C96.4039 4.55384 97.0483 4.36952 97.7004 4.4021C98.6204 4.53406 98.8844 3.3501 98.6204 3.21814C98.3565 3.08618 91.5203 2.43005 91.5203 2.43005C91.5203 2.43005 65.7518 1.77393 59.1759 1.77393C52.5999 1.77393 44.4515 2.93223 39.4554 5.83165C34.4593 8.73107 29.5915 12.1437 29.5915 12.1437Z" fill="white" stroke="black" stroke-width="1.46621" stroke-linecap="round" stroke-linejoin="round"/>
<path d="M97.8911 22.5573C94.1595 22.4095 90.5514 21.1792 87.5067 19.0164C84.1931 16.6632 80.3003 13.9287 80.0914 13.9287C79.7615 13.9287 77.9324 15.1237 77.5842 15.3583C77.5449 15.3839 77.4992 15.3978 77.4522 15.3986L25.8858 17.2277C25.8591 17.2234 25.8319 17.2234 25.8052 17.2277L10.4906 23.0925C10.4603 23.098 10.4293 23.098 10.399 23.0925H5.57153C5.50348 23.0925 5.43821 23.1195 5.39009 23.1676C5.34197 23.2158 5.31494 23.281 5.31494 23.3491V24.1078C5.31494 24.1634 5.33295 24.2174 5.36626 24.2618L7.40428 26.9779C7.43427 27.0177 7.47519 27.0479 7.52206 27.0649C7.56893 27.0818 7.61971 27.0847 7.6682 27.0732C7.95411 27.0073 8.6359 26.9523 9.70989 27.4911C10.7839 28.0299 10.0764 29.3605 9.63658 30.0276C9.6115 30.0664 9.59736 30.1113 9.59566 30.1575C9.59395 30.2036 9.60474 30.2494 9.62689 30.2899C9.64904 30.3305 9.68173 30.3643 9.7215 30.3878C9.76127 30.4113 9.80665 30.4237 9.85285 30.4235H12.0155C12.0759 30.4236 12.1345 30.4022 12.1807 30.3633C12.227 30.3245 12.2581 30.2705 12.2684 30.2109C12.4347 29.5625 12.6366 28.9237 12.8732 28.2975C13.2558 27.2733 13.9065 26.3707 14.7573 25.684C19.2879 21.7876 26.1204 22.2348 29.6686 27.2858C30.3167 28.5918 30.8788 29.9386 31.3511 31.3179C31.3644 31.3738 31.3963 31.4235 31.4416 31.4588C31.4869 31.4941 31.5429 31.5129 31.6003 31.5122H73.2699C73.3303 31.5122 73.3889 31.4909 73.4351 31.452C73.4814 31.4131 73.5125 31.3591 73.5228 31.2996C73.7134 30.079 74.989 24.0455 81.5576 23.4481C88.8483 22.7846 91.6451 27.8137 92.1143 28.785C92.1373 28.8323 92.1742 28.8713 92.2201 28.8969C92.266 28.9224 92.3186 28.9333 92.3709 28.928L99.6543 28.2352C99.7178 28.2288 99.7766 28.199 99.8193 28.1516C99.862 28.1041 99.8855 28.0425 99.8852 27.9786V22.8469C99.8838 22.8043 99.8719 22.7627 99.8504 22.7259C99.829 22.6891 99.7987 22.6582 99.7624 22.636C99.726 22.6138 99.6846 22.6011 99.6421 22.5988C99.5995 22.5966 99.5571 22.605 99.5186 22.6233L97.8911 22.5573Z" fill="url(#paint0_linear_181_3100)"/>
<path d="M55.1621 16.3408L50.4775 16.4984" stroke="black" stroke-width="0.733103" stroke-linecap="round" stroke-linejoin="round"/>
<path d="M75.6889 15.2412L71.0044 15.3988" stroke="black" stroke-width="0.733103" stroke-linecap="round" stroke-linejoin="round"/>
<path d="M3.55908 24.896C3.69104 25.6841 4.74304 28.4442 5.13525 28.5615C5.52746 28.6788 7.20993 28.5029 7.41887 28.2976" stroke="black" stroke-width="0.733103" stroke-linecap="round" stroke-linejoin="round"/>
<path d="M18.3053 16.3994C18.3053 16.3994 9.62908 17.5944 7.78533 18.1075C6.7437 18.3665 5.84575 19.0248 5.28545 19.9403C5.15349 20.0723 8.58441 20.3362 9.09758 20.3362C9.61075 20.3362 18.3053 16.3994 18.3053 16.3994Z" stroke="black" stroke-width="0.733103" stroke-linecap="round" stroke-linejoin="round"/>
<path d="M35.002 13.694C35.1339 13.2982 37.6301 10.538 38.946 9.61798C40.262 8.69794 44.1694 6.23105 46.3101 5.54193C48.9162 4.70253 52.0576 4.41295 53.7584 4.22601C55.5325 4.03174 56.9987 4.03174 56.9987 4.03174L55.3492 13.0636L35.002 13.694Z" stroke="black" stroke-width="0.733103" stroke-linecap="round" stroke-linejoin="round"/>
<path d="M59.3811 3.85938L58.6187 13.0635L72.8189 12.2754L76.2424 10.5673C76.6912 10.3514 77.1757 10.2197 77.672 10.1787L71.4223 4.03165L59.3811 3.85938Z" stroke="black" stroke-width="0.733103" stroke-linecap="round" stroke-linejoin="round"/>
<path d="M96.8832 11.0915L93.7272 5.9598C92.7775 5.64719 91.8122 5.38414 90.8351 5.17171C85.2779 4.50865 79.6906 4.12817 74.0947 4.03174L80.8979 10.2631C86.0003 10.5197 96.8832 11.0915 96.8832 11.0915Z" stroke="black" stroke-width="0.733103" stroke-linecap="round" stroke-linejoin="round"/>
<path d="M21.0766 39.5873C25.1254 39.5873 28.4077 36.3051 28.4077 32.2563C28.4077 28.2075 25.1254 24.9253 21.0766 24.9253C17.0278 24.9253 13.7456 28.2075 13.7456 32.2563C13.7456 36.3051 17.0278 39.5873 21.0766 39.5873Z" fill="url(#paint1_linear_181_3100)" stroke="black" stroke-width="0.733103" stroke-linecap="round" stroke-linejoin="round"/>
<path d="M21.0766 36.1674C23.2367 36.1674 24.9877 34.4164 24.9877 32.2563C24.9877 30.0963 23.2367 28.3452 21.0766 28.3452C18.9166 28.3452 17.1655 30.0963 17.1655 32.2563C17.1655 34.4164 18.9166 36.1674 21.0766 36.1674Z" fill="white" stroke="black" stroke-width="0.733103" stroke-linecap="round" stroke-linejoin="round"/>
<path d="M83.0234 39.5873C87.0722 39.5873 90.3544 36.3051 90.3544 32.2563C90.3544 28.2075 87.0722 24.9253 83.0234 24.9253C78.9746 24.9253 75.6924 28.2075 75.6924 32.2563C75.6924 36.3051 78.9746 39.5873 83.0234 39.5873Z" fill="url(#paint2_linear_181_3100)" stroke="black" stroke-width="0.733103" stroke-linecap="round" stroke-linejoin="round"/>
<path d="M83.0239 36.1674C85.1839 36.1674 86.935 34.4164 86.935 32.2563C86.935 30.0963 85.1839 28.3452 83.0239 28.3452C80.8639 28.3452 79.1128 30.0963 79.1128 32.2563C79.1128 34.4164 80.8639 36.1674 83.0239 36.1674Z" fill="white" stroke="black" stroke-width="0.733103" stroke-linecap="round" stroke-linejoin="round"/>
<path d="M98.7852 19.3539C99.225 17.5944 98.0521 16.8613 98.0521 16.8613H87.2021L95.1197 20.5268H98.0521L98.7852 19.3539Z" fill="#ED1C24"/>
<path d="M5.13135 28.5906C5.52722 28.7225 7.20603 28.5319 7.41496 28.3267" stroke="black" stroke-width="0.733103" stroke-linecap="round" stroke-linejoin="round"/>
<path d="M86.623 2.29427L91.8207 0.366211C91.8207 0.366211 92.3009 0.57148 92.2459 2.48488" stroke="black" stroke-width="0.733103" stroke-linecap="round" stroke-linejoin="round"/>
<path d="M99.8848 18.2543C100.325 16.4948 99.1517 15.7617 99.1517 15.7617H88.3018L96.2193 19.4272H99.1517L99.8848 18.2543Z" stroke="black" stroke-width="0.733103" stroke-linecap="round" stroke-linejoin="round"/>
</g>
<defs>
<linearGradient id="paint0_linear_181_3100" x1="52.6001" y1="13.9287" x2="52.6001" y2="31.5232" gradientUnits="userSpaceOnUse">
<stop stop-color="white" stop-opacity="0.5"/>
<stop offset="1" stop-color="#ADADAD"/>
</linearGradient>
<linearGradient id="paint1_linear_181_3100" x1="13.7456" y1="32.2563" x2="28.4077" y2="32.2563" gradientUnits="userSpaceOnUse">
<stop stop-color="#656565"/>
<stop offset="1" stop-color="#171717"/>
</linearGradient>
<linearGradient id="paint2_linear_181_3100" x1="75.6924" y1="-0.000199636" x2="90.3544" y2="-0.000199636" gradientUnits="userSpaceOnUse">
<stop stop-color="#656565"/>
<stop offset="1" stop-color="#171717"/>
</linearGradient>
<clipPath id="clip0_181_3100">
<rect width="104.284" height="39.9541" fill="white"/>
</clipPath>
</defs>
</svg>
