<svg width="29" height="17" viewBox="0 0 29 17" fill="none" xmlns="http://www.w3.org/2000/svg">
<path d="M2.14311 0.137939H27.6086C27.9579 0.137939 28.2929 0.276713 28.5399 0.523732C28.787 0.770751 28.9257 1.10578 28.9257 1.45512C28.9257 1.80446 28.787 2.13949 28.5399 2.3865C28.2929 2.63352 27.9579 2.7723 27.6086 2.7723H2.14311C1.79377 2.7723 1.45874 2.63352 1.21172 2.3865C0.964702 2.13949 0.825928 1.80446 0.825928 1.45512C0.825928 1.10578 0.964702 0.770751 1.21172 0.523732C1.45874 0.276713 1.79377 0.137939 2.14311 0.137939ZM6.09464 8.48007C6.09464 8.13073 6.23342 7.7957 6.48043 7.54869C6.72745 7.30167 7.06248 7.16289 7.41182 7.16289H22.3398C22.6892 7.16289 23.0242 7.30167 23.2712 7.54869C23.5182 7.7957 23.657 8.13073 23.657 8.48007C23.657 8.82941 23.5182 9.16444 23.2712 9.41146C23.0242 9.65847 22.6892 9.79725 22.3398 9.79725H7.41182C7.06248 9.79725 6.72745 9.65847 6.48043 9.41146C6.23342 9.16444 6.09464 8.82941 6.09464 8.48007ZM11.3634 15.505C11.3634 15.1557 11.5021 14.8207 11.7491 14.5736C11.9962 14.3266 12.3312 14.1878 12.6805 14.1878H17.0711C17.4205 14.1878 17.7555 14.3266 18.0025 14.5736C18.2495 14.8207 18.3883 15.1557 18.3883 15.505C18.3883 15.8544 18.2495 16.1894 18.0025 16.4364C17.7555 16.6834 17.4205 16.8222 17.0711 16.8222H12.6805C12.3312 16.8222 11.9962 16.6834 11.7491 16.4364C11.5021 16.1894 11.3634 15.8544 11.3634 15.505Z" fill="#063266"/>
</svg>
