<svg width="15" height="15" viewBox="0 0 15 15" fill="none" xmlns="http://www.w3.org/2000/svg">
<g clip-path="url(#clip0_37_1522)">
<path d="M11.3938 1.10784C11.2367 1.10513 11.0808 1.13403 10.9351 1.19282C10.7895 1.25161 10.6572 1.3391 10.546 1.45007L10.0244 1.98792L13.4638 5.44408L13.9855 4.90675C14.098 4.79438 14.1873 4.66094 14.2482 4.51404C14.3091 4.36715 14.3405 4.20968 14.3405 4.05066C14.3405 3.89164 14.3091 3.73418 14.2482 3.58728C14.1873 3.44039 14.098 3.30694 13.9855 3.19458L12.2577 1.46624C12.0281 1.23778 11.7177 1.10901 11.3938 1.10784ZM9.43746 2.46109L8.62206 3.24362L12.2086 6.8302L13.0402 6.06384L9.43746 2.46109ZM8.09986 3.81434L2.46045 9.40523C2.39638 9.43803 2.33999 9.48405 2.29503 9.54026C2.25006 9.59646 2.21754 9.66157 2.19961 9.73128L0.99243 13.8239C0.965174 13.9123 0.96254 14.0064 0.984811 14.0962C1.00708 14.186 1.05342 14.268 1.11883 14.3334C1.18424 14.3988 1.26625 14.4452 1.35603 14.4674C1.44581 14.4897 1.53997 14.4871 1.62836 14.4598L5.72046 13.2532C5.81334 13.2393 5.90058 13.2 5.97249 13.1396C6.04441 13.0792 6.09819 13 6.12789 12.9109L11.687 7.4004L10.9211 6.63456L5.21494 12.3569L2.9164 13.0247L2.42706 12.5359L3.12821 10.1398L8.78535 4.49879L8.09986 3.81434ZM9.33886 5.06951L3.61702 10.808L4.44807 10.987L4.56232 11.7539L10.3008 6.03098L9.33886 5.06951Z" fill="#393939"/>
</g>
<defs>
<clipPath id="clip0_37_1522">
<rect width="13.5638" height="13.5638" fill="white" transform="translate(0.910889 0.977539)"/>
</clipPath>
</defs>
</svg>
